<svg width="20" height="20" viewBox="0 0 20 20" xmlns="http://www.w3.org/2000/svg">
    <path d="M14.4142 7L19.7071 1.70711C20.0976 1.31658 20.0976 0.683418 19.7071 0.292893C19.3166 -0.0976311 18.6834 -0.0976311 18.2929 0.292893L13 5.58579V2C13 1.44772 12.5523 1 12 1C11.4477 1 11 1.44772 11 2V8C11 8.13559 11.027 8.26488 11.0759 8.38278C11.1236 8.49805 11.1937 8.6062 11.2864 8.70055L11.2995 8.7136C11.4792 8.8901 11.7254 8.9992 11.997 9L12 9H18C18.5523 9 19 8.55229 19 8C19 7.44772 18.5523 7 18 7H14.4142Z" fill="#F25A8C"/>
    <path d="M1 12C1 11.4477 1.44772 11 2 11H8C8.27282 11 8.52013 11.1093 8.70055 11.2864L8.7136 11.2995C8.80626 11.3938 8.87643 11.502 8.92412 11.6172C8.97265 11.7343 8.9996 11.8625 9 11.997L9 12V18C9 18.5523 8.55229 19 8 19C7.44772 19 7 18.5523 7 18V14.4142L1.70711 19.7071C1.31658 20.0976 0.683418 20.0976 0.292893 19.7071C-0.0976311 19.3166 -0.0976311 18.6834 0.292893 18.2929L5.58579 13H2C1.44772 13 1 12.5523 1 12Z" fill="#F25A8C"/>
</svg>