<svg width="24" height="24" viewBox="0 0 24 24" xmlns="http://www.w3.org/2000/svg">
    <path d="M12.0008 15.2766C11.8674 15.2766 11.7424 15.2557 11.6258 15.2141C11.5091 15.1724 11.4008 15.1016 11.3008 15.0016L6.70078 10.4016C6.51745 10.2182 6.42578 9.9849 6.42578 9.70156C6.42578 9.41823 6.51745 9.1849 6.70078 9.00156C6.88411 8.81823 7.11745 8.72656 7.40078 8.72656C7.68411 8.72656 7.91745 8.81823 8.10078 9.00156L12.0008 12.9016L15.9008 9.00156C16.0841 8.81823 16.3174 8.72656 16.6008 8.72656C16.8841 8.72656 17.1174 8.81823 17.3008 9.00156C17.4841 9.1849 17.5758 9.41823 17.5758 9.70156C17.5758 9.9849 17.4841 10.2182 17.3008 10.4016L12.7008 15.0016C12.6008 15.1016 12.4924 15.1724 12.3758 15.2141C12.2591 15.2557 12.1341 15.2766 12.0008 15.2766Z"/>
</svg>