<svg width="15" height="15" viewBox="0 0 19 19" fill="none" xmlns="http://www.w3.org/2000/svg">
<path d="M18.0682 5.75765L13.2425 0.931886C11.9152 -0.395379 9.67766 -0.0322767 8.83823 1.6466L6.40281 6.51748C6.31512 6.69287 6.16223 6.82694 5.97688 6.89096L1.81061 8.33022C0.937914 8.6317 0.682002 9.74272 1.33487 10.3956L4.43936 13.5001L8.27878e-05 17.9394L0 19.0001H1.06074L5.50002 14.5607L8.60453 17.6653C9.2574 18.3181 10.3684 18.0622 10.6699 17.1895L12.1092 13.0232C12.1732 12.8379 12.3073 12.685 12.4826 12.5973L17.3535 10.1619C19.0324 9.32243 19.3955 7.08491 18.0682 5.75765Z" fill="black"/>
</svg>
