<svg width="20" height="20" viewBox="0 0 20 20" fill="none" xmlns="http://www.w3.org/2000/svg">
<path d="M9.16699 10.8334H5.00033C4.76421 10.8334 4.5663 10.7536 4.40658 10.5938C4.24685 10.4341 4.16699 10.2362 4.16699 10.0001C4.16699 9.76397 4.24685 9.56605 4.40658 9.40633C4.5663 9.24661 4.76421 9.16675 5.00033 9.16675H9.16699V5.00008C9.16699 4.76397 9.24685 4.56605 9.40658 4.40633C9.5663 4.24661 9.76421 4.16675 10.0003 4.16675C10.2364 4.16675 10.4344 4.24661 10.5941 4.40633C10.7538 4.56605 10.8337 4.76397 10.8337 5.00008V9.16675H15.0003C15.2364 9.16675 15.4344 9.24661 15.5941 9.40633C15.7538 9.56605 15.8337 9.76397 15.8337 10.0001C15.8337 10.2362 15.7538 10.4341 15.5941 10.5938C15.4344 10.7536 15.2364 10.8334 15.0003 10.8334H10.8337V15.0001C10.8337 15.2362 10.7538 15.4341 10.5941 15.5938C10.4344 15.7536 10.2364 15.8334 10.0003 15.8334C9.76421 15.8334 9.5663 15.7536 9.40658 15.5938C9.24685 15.4341 9.16699 15.2362 9.16699 15.0001V10.8334Z" fill="#3561FE"/>
</svg>
