<svg width="20" height="20" viewBox="0 0 20 20" fill="none" xmlns="http://www.w3.org/2000/svg">
<path fill-rule="evenodd" clip-rule="evenodd" d="M1 0C1.55228 0 2 0.447715 2 1V18H19C19.5523 18 20 18.4477 20 19C20 19.5523 19.5523 20 19 20H1C0.447715 20 0 19.5523 0 19V1C0 0.447715 0.447715 0 1 0Z" fill="#BF5AF2"/>
<path fill-rule="evenodd" clip-rule="evenodd" d="M16.2929 6.29289C16.6834 5.90237 17.3166 5.90237 17.7071 6.29289C18.0976 6.68342 18.0976 7.31658 17.7071 7.70711L12.7071 12.7071C12.3166 13.0976 11.6834 13.0976 11.2929 12.7071L8 9.41421L5.70711 11.7071C5.31658 12.0976 4.68342 12.0976 4.29289 11.7071C3.90237 11.3166 3.90237 10.6834 4.29289 10.2929L7.29289 7.29289C7.68342 6.90237 8.31658 6.90237 8.70711 7.29289L12 10.5858L16.2929 6.29289Z" fill="#BF5AF2"/>
</svg>
