<svg width="20" height="20" viewBox="0 0 20 20" fill="none" xmlns="http://www.w3.org/2000/svg">
<path fill-rule="evenodd" clip-rule="evenodd" d="M11 2C11 0.89543 11.8954 0 13 0H18C19.1046 0 20 0.89543 20 2V7C20 8.10457 19.1046 9 18 9H13C11.8954 9 11 8.10457 11 7V2ZM18 2H13V7H18V2Z" fill="#F25A8C"/>
<path fill-rule="evenodd" clip-rule="evenodd" d="M0.585786 4.58579C0.960859 4.21071 1.46957 4 2 4H7C7.53043 4 8.03914 4.21071 8.41421 4.58579C8.78929 4.96086 9 5.46957 9 6V11H14C14.5304 11 15.0391 11.2107 15.4142 11.5858C15.7893 11.9609 16 12.4696 16 13V18C16 18.5304 15.7893 19.0391 15.4142 19.4142C15.0391 19.7893 14.5304 20 14 20H2C1.46957 20 0.960861 19.7893 0.585786 19.4142C0.210713 19.0391 0 18.5304 0 18V6C0 5.46957 0.210714 4.96086 0.585786 4.58579ZM2 13V18H7V13H2ZM7 11H2V6H7V11ZM9 13V18H14V13H9Z" fill="#F25A8C"/>
</svg>
