<svg width="18" height="22" viewBox="0 0 18 22" fill="none" xmlns="http://www.w3.org/2000/svg">
<path fill-rule="evenodd" clip-rule="evenodd" d="M6 1C6 0.447715 6.44772 0 7 0H11C11.5523 0 12 0.447715 12 1C12 1.55228 11.5523 2 11 2H7C6.44772 2 6 1.55228 6 1Z" fill="#53C0E2"/>
<path fill-rule="evenodd" clip-rule="evenodd" d="M12.7071 9.29289C13.0976 9.68342 13.0976 10.3166 12.7071 10.7071L9.70711 13.7071C9.31658 14.0976 8.68342 14.0976 8.29289 13.7071C7.90237 13.3166 7.90237 12.6834 8.29289 12.2929L11.2929 9.29289C11.6834 8.90237 12.3166 8.90237 12.7071 9.29289Z" fill="#53C0E2"/>
<path fill-rule="evenodd" clip-rule="evenodd" d="M9 6C5.13401 6 2 9.13401 2 13C2 16.866 5.13401 20 9 20C12.866 20 16 16.866 16 13C16 9.13401 12.866 6 9 6ZM0 13C0 8.02944 4.02944 4 9 4C13.9706 4 18 8.02944 18 13C18 17.9706 13.9706 22 9 22C4.02944 22 0 17.9706 0 13Z" fill="#53C0E2"/>
</svg>
